<svg id="visual" viewBox="0 0 960 540" width="960" height="540" xmlns="http://www.w3.org/2000/svg" xmlns:xlink="http://www.w3.org/1999/xlink" version="1.1"><path d="M0 77L56 77L113 71L169 71L226 77L282 82L339 82L395 77L452 82L508 82L565 77L621 82L678 82L734 71L791 71L847 77L904 77L960 77L960 0L904 0L847 0L791 0L734 0L678 0L621 0L565 0L508 0L452 0L395 0L339 0L282 0L226 0L169 0L113 0L56 0L0 0Z" fill="#d4b7ff"></path><path d="M0 163L56 168L113 158L169 163L226 174L282 174L339 185L395 168L452 185L508 179L565 163L621 174L678 185L734 168L791 168L847 163L904 168L960 179L960 75L904 75L847 75L791 69L734 69L678 80L621 80L565 75L508 80L452 80L395 75L339 80L282 80L226 75L169 69L113 69L56 75L0 75Z" fill="#ba91f1"></path><path d="M0 325L56 325L113 309L169 320L226 330L282 341L339 352L395 341L452 347L508 330L565 330L621 336L678 347L734 341L791 330L847 336L904 320L960 325L960 177L904 166L847 161L791 166L734 166L678 183L621 172L565 161L508 177L452 183L395 166L339 183L282 172L226 172L169 161L113 156L56 166L0 161Z" fill="#a06ae2"></path><path d="M0 390L56 384L113 374L169 384L226 395L282 401L339 411L395 401L452 411L508 395L565 395L621 401L678 411L734 406L791 390L847 395L904 379L960 390L960 323L904 318L847 334L791 328L734 339L678 345L621 334L565 328L508 328L452 345L395 339L339 350L282 339L226 328L169 318L113 307L56 323L0 323Z" fill="#8641d2"></path><path d="M0 541L56 541L113 541L169 541L226 541L282 541L339 541L395 541L452 541L508 541L565 541L621 541L678 541L734 541L791 541L847 541L904 541L960 541L960 388L904 377L847 393L791 388L734 404L678 409L621 399L565 393L508 393L452 409L395 399L339 409L282 399L226 393L169 382L113 372L56 382L0 388Z" fill="#6c00c0"></path></svg>